<?xml version="1.0" encoding="utf-8"?>
<!-- Generator: Adobe Illustrator 23.0.0, SVG Export Plug-In . SVG Version: 6.00 Build 0)  -->
<svg version="1.1" xmlns="http://www.w3.org/2000/svg" xmlns:xlink="http://www.w3.org/1999/xlink" x="0px" y="0px"
	 viewBox="0 0 1024 1024" style="enable-background:new 0 0 1024 1024;" xml:space="preserve">
<style type="text/css">
	.st0{fill:#FFFFFF;}
	.st1{fill:#333232;}
	.st2{fill:#2B2B2B;}
	.st3{fill:#E2E0E0;}
	.st4{fill:#191818;}
	.st5{fill:#232121;}
	.st6{fill:#595858;}
	.st7{fill:#0091CA;}
	.st8{fill:#191919;}
	.st9{fill:#B7B7B7;}
	.st10{fill:#666666;}
	.st11{fill:#474545;}
	.st12{fill:#585858;}
	.st13{fill:#3A3A3A;}
	.st14{fill:#1C1919;stroke:#000000;stroke-miterlimit:10;}
	.st15{fill:#D8D6D6;}
	.st16{fill:none;stroke:#C1B8B8;stroke-width:2;stroke-miterlimit:10;}
	.st17{fill:none;stroke:#8A8A8E;stroke-width:2;stroke-miterlimit:10;}
	.st18{fill:none;stroke:#848383;stroke-width:2;stroke-miterlimit:10;}
	.st19{fill:none;stroke:#66CAF2;stroke-miterlimit:10;}
	.st20{fill:none;stroke:#000000;stroke-miterlimit:10;}
	.st21{fill:none;stroke:#706D6D;stroke-miterlimit:10;}
	.st22{fill:#BABABA;}
	.st23{fill:#B2B2B2;}
	.st24{fill:#262626;stroke:#C1BDBD;stroke-linecap:round;stroke-miterlimit:10;}
	.st25{fill:#AFAFAF;stroke:#E5DCDC;stroke-miterlimit:10;}
	.st26{fill:#B2ADAD;}
	.st27{fill:#726B6B;}
	.st28{stroke:#5B5A5A;stroke-miterlimit:10;}
	.st29{fill:#AFAAAA;}
	.st30{fill:#1C1919;stroke:#6D6D6D;stroke-miterlimit:10;}
	.st31{fill:none;stroke:#444343;stroke-miterlimit:10;}
	.st32{fill:#282727;stroke:#545252;stroke-width:2;stroke-miterlimit:10;}
	.st33{fill:none;stroke:#B7B6B6;stroke-width:2;stroke-miterlimit:10;}
	.st34{fill:#070707;}
	.st35{fill:#0F7EBC;}
	.st36{fill:#F4F4F4;}
	.st37{fill:#DDD9D9;}
	.st38{fill:#110C0C;stroke:#000000;stroke-miterlimit:10;}
	.st39{fill:#F9F4F4;}
	.st40{opacity:0.1;fill:#FFFDFD;}
	.st41{opacity:0.2;fill:#FFFDFD;}
	.st42{opacity:0.5;fill:#FDFDFF;}
</style>
<g id="Layer_1">
	<rect y="954" width="1024" height="70"/>
	<g>
		<path class="st0" d="M314.4,974.25h4.52c3.56,0,6.49,0.94,8.79,2.81c2.32,1.86,3.48,4.53,3.48,8.01c0,3.58-1.15,6.32-3.45,8.21
			c-2.3,1.9-5.27,2.84-8.9,2.84h-4.44V974.25z M317.12,993.63h0.95c1.42,0,2.75-0.15,4.01-0.43c1.25-0.28,2.35-0.76,3.29-1.42
			c0.94-0.66,1.69-1.54,2.25-2.61c0.56-1.08,0.84-2.41,0.84-3.99c0-1.56-0.28-2.89-0.83-4.02c-0.55-1.11-1.32-1.98-2.3-2.6
			c-0.99-0.63-2.07-1.1-3.27-1.39c-1.19-0.29-2.51-0.44-3.99-0.44h-0.95V993.63z"/>
		<path class="st0" d="M335.2,989.76c0.04,1.21,0.43,2.27,1.16,3.17c0.76,0.89,1.73,1.33,2.93,1.33c0.95,0,1.73-0.21,2.34-0.65
			c0.61-0.43,1.19-1.1,1.73-1.99l2.2,1.25c-0.64,1.16-1.51,2.06-2.63,2.72c-1.11,0.65-2.34,0.99-3.67,0.99
			c-2.02,0-3.65-0.68-4.87-2.03c-1.2-1.38-1.8-3.08-1.8-5.11c0-2.14,0.57-3.91,1.71-5.29c1.12-1.35,2.75-2.03,4.9-2.03
			c2.09,0,3.66,0.68,4.73,2.03c1.08,1.35,1.62,3.08,1.62,5.2v0.4H335.2z M342.95,987.79c-0.16-1.04-0.55-1.88-1.2-2.48
			c-0.65-0.6-1.49-0.92-2.54-0.92c-0.5,0-0.97,0.09-1.4,0.26c-0.44,0.16-0.82,0.4-1.17,0.7c-0.33,0.32-0.61,0.69-0.83,1.1
			c-0.22,0.41-0.37,0.87-0.45,1.35H342.95z"/>
		<path class="st0" d="M353.25,985.65c-0.39-0.8-0.97-1.19-1.74-1.19c-0.36,0-0.7,0.12-0.99,0.39c-0.29,0.26-0.43,0.59-0.43,0.95
			c0,0.35,0.11,0.64,0.33,0.88c0.22,0.24,0.52,0.47,0.91,0.69c0.26,0.11,0.45,0.21,0.58,0.27c0.13,0.07,0.36,0.17,0.67,0.31
			c0.15,0.08,0.29,0.15,0.41,0.18c0.11,0.04,0.2,0.07,0.25,0.12c0.97,0.44,1.73,0.96,2.29,1.53c0.56,0.59,0.84,1.36,0.84,2.33
			c0,1.28-0.46,2.35-1.39,3.22c-0.91,0.86-2,1.28-3.28,1.28c-0.52,0-1.02-0.08-1.5-0.22c-0.49-0.14-0.94-0.35-1.35-0.61
			c-0.42-0.27-0.78-0.58-1.11-0.95c-0.31-0.38-0.57-0.8-0.73-1.27l2.23-1.01c0.63,1.16,1.46,1.74,2.46,1.74
			c0.41,0,0.79-0.11,1.14-0.33c0.35-0.22,0.6-0.51,0.77-0.85c0.16-0.34,0.2-0.7,0.1-1.1c-0.1-0.4-0.4-0.78-0.9-1.12l-2.56-1.37
			c-0.45-0.23-0.83-0.45-1.16-0.69c-0.33-0.24-0.6-0.49-0.81-0.75c-0.21-0.27-0.37-0.55-0.48-0.87c-0.11-0.32-0.16-0.69-0.16-1.13
			c0-1.1,0.39-2.02,1.17-2.78c0.77-0.77,1.72-1.16,2.84-1.16c1.7,0,2.94,0.8,3.71,2.38L353.25,985.65z"/>
		<path class="st0" d="M362.62,976.33c0,0.49-0.17,0.9-0.53,1.26c-0.34,0.34-0.77,0.5-1.27,0.5c-0.51,0-0.93-0.16-1.28-0.5
			c-0.35-0.36-0.52-0.77-0.52-1.26c0-0.5,0.17-0.93,0.52-1.3c0.35-0.36,0.77-0.53,1.28-0.53c0.5,0,0.93,0.17,1.27,0.53
			C362.45,975.4,362.62,975.83,362.62,976.33z M362.12,996.12h-2.61v-13.58h2.61V996.12z"/>
		<path class="st0" d="M379.02,995.86c0,2.55-0.49,4.52-1.46,5.94c-0.96,1.4-2.69,2.09-5.16,2.09c-1.91,0-3.48-0.55-4.7-1.66
			c-1.2-1.1-1.82-2.6-1.86-4.49h2.61c0,1.21,0.38,2.15,1.12,2.83c0.74,0.67,1.73,1,2.95,1c1.49,0,2.51-0.44,3.06-1.31
			c0.55-0.87,0.82-2.1,0.82-3.68V994h-0.05c-0.55,0.82-1.21,1.45-2.02,1.9c-0.81,0.46-1.67,0.69-2.6,0.69
			c-2.01,0-3.6-0.71-4.76-2.12c-1.16-1.41-1.74-3.16-1.74-5.22c0-1.96,0.59-3.62,1.77-4.99c1.19-1.41,2.72-2.12,4.61-2.12
			c2,0,3.57,0.91,4.73,2.73h0.05v-2.33h2.62V995.86z M372.14,994.26c1.37,0,2.44-0.47,3.22-1.42c0.79-0.96,1.19-2.14,1.19-3.51
			c0-1.35-0.39-2.5-1.19-3.46c-0.77-0.94-1.85-1.41-3.22-1.41c-1.3,0-2.34,0.47-3.14,1.45c-0.77,0.95-1.16,2.08-1.16,3.42
			c0,1.37,0.39,2.54,1.16,3.48C369.8,993.78,370.84,994.26,372.14,994.26z"/>
		<path class="st0" d="M385.03,984.36h0.05c0.39-0.71,0.96-1.27,1.69-1.65c0.73-0.39,1.54-0.58,2.41-0.58c0.89,0,1.64,0.14,2.26,0.4
			c0.62,0.27,1.12,0.66,1.5,1.16c0.38,0.5,0.65,1.12,0.81,1.84c0.17,0.73,0.25,1.55,0.25,2.49v8.09h-2.6v-7.77
			c0-1.34-0.2-2.31-0.59-2.93c-0.39-0.64-1.19-0.95-2.41-0.95c-0.45,0-0.82,0.04-1.13,0.12c-0.31,0.09-0.58,0.22-0.81,0.37
			c-0.23,0.17-0.42,0.37-0.58,0.57c-0.15,0.21-0.3,0.45-0.43,0.71c-0.06,0.13-0.12,0.3-0.16,0.52c-0.05,0.21-0.09,0.43-0.13,0.66
			c-0.04,0.22-0.08,0.44-0.09,0.66c-0.02,0.23-0.02,0.4-0.02,0.54v1.28v6.23h-2.62v-13.58h2.62V984.36z"/>
		<path class="st0" d="M405.77,970.93h2.61v13.87h0.05c1.2-1.77,2.78-2.67,4.73-2.67c1.9,0,3.43,0.71,4.62,2.12
			c1.18,1.37,1.77,3.03,1.77,4.99c0,2.06-0.59,3.81-1.74,5.22c-1.17,1.41-2.75,2.12-4.76,2.12c-0.93,0-1.8-0.23-2.6-0.69
			c-0.8-0.45-1.47-1.09-2.02-1.9h-0.05v2.12h-2.61V970.93z M412.52,994.26c1.38,0,2.45-0.47,3.23-1.42
			c0.79-0.96,1.18-2.14,1.18-3.51c0-1.35-0.39-2.5-1.18-3.46c-0.78-0.94-1.85-1.41-3.23-1.41c-1.3,0-2.34,0.47-3.13,1.45
			c-0.78,0.95-1.16,2.08-1.16,3.42c0,1.37,0.38,2.54,1.16,3.48C410.18,993.78,411.23,994.26,412.52,994.26z"/>
		<path class="st0" d="M419.93,982.54h3.04l4.58,8.62l4.26-8.62h2.94l-11,21.36h-2.96l5.34-10.1L419.93,982.54z"/>
		<path class="st0" d="M447.93,990.63l-2.5,5.49h-2.93l10.45-22.81l10.44,22.81h-2.92l-2.49-5.49H447.93z M452.95,979.29l-3.9,8.85
			h7.78L452.95,979.29z"/>
		<path class="st0" d="M467.66,996.12h-2.61v-25.19h2.61V996.12z"/>
		<path class="st0" d="M474.1,996.12h-2.61v-25.19h2.61V996.12z"/>
		<path class="st0" d="M484.02,985.74v2.17h-6.36v-2.17H484.02z"/>
		<path class="st0" d="M494.17,973.57c-0.81-0.37-1.38-0.55-1.73-0.55c-0.57,0-0.97,0.17-1.22,0.53c-0.26,0.36-0.43,0.79-0.52,1.32
			c-0.06,0.38-0.09,0.69-0.11,0.91c0,0.23,0,0.53,0,0.92v5.82h3.58v2.44h-3.58v11.15h-2.62v-11.15h-1.18v-2.44h1.18v-6.61
			c0-3.56,1.47-5.35,4.39-5.35c0.64,0,1.24,0.13,1.81,0.35V973.57z"/>
		<path class="st0" d="M498.2,984.74h0.09c0.33-0.81,0.81-1.45,1.46-1.91c0.64-0.46,1.39-0.7,2.26-0.7c0.72,0,1.43,0.22,2.16,0.67
			l-1.19,2.38c-0.43-0.38-0.96-0.55-1.6-0.55c-1.35,0-2.23,0.54-2.67,1.62c-0.2,0.5-0.33,1-0.39,1.49c-0.06,0.48-0.11,1.06-0.11,1.7
			v6.67h-2.6v-13.58h2.6V984.74z"/>
		<path class="st0" d="M507.18,989.76c0.03,1.21,0.42,2.27,1.16,3.17c0.75,0.89,1.72,1.33,2.92,1.33c0.94,0,1.73-0.21,2.34-0.65
			c0.61-0.43,1.19-1.1,1.72-1.99l2.2,1.25c-0.63,1.16-1.51,2.06-2.62,2.72c-1.11,0.65-2.34,0.99-3.67,0.99
			c-2.03,0-3.65-0.68-4.87-2.03c-1.2-1.38-1.8-3.08-1.8-5.11c0-2.14,0.57-3.91,1.71-5.29c1.12-1.35,2.75-2.03,4.9-2.03
			c2.09,0,3.67,0.68,4.74,2.03c1.07,1.35,1.61,3.08,1.61,5.2v0.4H507.18z M514.93,987.79c-0.16-1.04-0.56-1.88-1.2-2.48
			c-0.65-0.6-1.49-0.92-2.54-0.92c-0.5,0-0.97,0.09-1.41,0.26c-0.43,0.16-0.82,0.4-1.15,0.7c-0.34,0.32-0.63,0.69-0.86,1.1
			c-0.22,0.41-0.37,0.87-0.44,1.35H514.93z"/>
		<path class="st0" d="M521.35,989.76c0.03,1.21,0.42,2.27,1.15,3.17c0.75,0.89,1.73,1.33,2.93,1.33c0.95,0,1.73-0.21,2.33-0.65
			c0.61-0.43,1.18-1.1,1.73-1.99l2.2,1.25c-0.63,1.16-1.49,2.06-2.62,2.72c-1.12,0.65-2.33,0.99-3.67,0.99
			c-2.04,0-3.66-0.68-4.88-2.03c-1.19-1.38-1.79-3.08-1.79-5.11c0-2.14,0.56-3.91,1.71-5.29c1.12-1.35,2.76-2.03,4.9-2.03
			c2.08,0,3.66,0.68,4.72,2.03c1.09,1.35,1.63,3.08,1.63,5.2v0.4H521.35z M529.09,987.79c-0.15-1.04-0.56-1.88-1.22-2.48
			c-0.64-0.6-1.48-0.92-2.53-0.92c-0.51,0-0.97,0.09-1.41,0.26c-0.43,0.16-0.81,0.4-1.15,0.7c-0.34,0.32-0.63,0.69-0.84,1.1
			c-0.23,0.41-0.38,0.87-0.46,1.35H529.09z"/>
		<path class="st0" d="M540.14,985.74v2.17h-6.36v-2.17H540.14z"/>
		<path class="st0" d="M553.69,994h-0.06c-0.54,0.82-1.21,1.45-2.01,1.9c-0.81,0.46-1.68,0.69-2.6,0.69c-2.01,0-3.6-0.71-4.75-2.12
			c-1.17-1.41-1.75-3.16-1.75-5.22c0-1.96,0.59-3.62,1.78-4.99c1.18-1.41,2.72-2.12,4.61-2.12c1.95,0,3.53,0.89,4.73,2.67h0.06
			v-13.87h2.6v25.19h-2.6V994z M549.42,994.26c1.37,0,2.45-0.47,3.22-1.42c0.79-0.96,1.2-2.14,1.2-3.51c0-1.35-0.4-2.5-1.2-3.46
			c-0.77-0.94-1.85-1.41-3.22-1.41c-1.3,0-2.34,0.47-3.13,1.45c-0.77,0.95-1.16,2.08-1.16,3.42c0,1.37,0.39,2.54,1.16,3.48
			C547.08,993.78,548.13,994.26,549.42,994.26z"/>
		<path class="st0" d="M560.57,984.22c1.41-1.39,3.14-2.09,5.17-2.09c2.03,0,3.74,0.7,5.12,2.09c1.42,1.38,2.12,3.12,2.12,5.14
			c0,2.03-0.7,3.74-2.12,5.15c-1.38,1.38-3.09,2.08-5.12,2.08c-2.04,0-3.76-0.7-5.17-2.08c-1.39-1.41-2.09-3.12-2.09-5.15
			C558.47,987.34,559.17,985.6,560.57,984.22z M561.08,989.36c0,1.25,0.47,2.36,1.38,3.32c0.89,0.95,1.99,1.4,3.28,1.4
			c1.27,0,2.37-0.46,3.27-1.4c0.91-0.96,1.36-2.07,1.36-3.32c0-1.28-0.45-2.4-1.36-3.34c-0.9-0.93-2-1.39-3.27-1.39
			c-1.29,0-2.4,0.46-3.28,1.39C561.55,986.96,561.08,988.08,561.08,989.36z"/>
		<path class="st0" d="M580.01,991.19l3.99-9.41l3.98,9.41l3.95-8.66h2.95l-6.9,14.05l-3.98-9.08l-3.99,9.08l-6.91-14.05h2.96
			L580.01,991.19z"/>
		<path class="st0" d="M598.81,984.36h0.06c0.38-0.71,0.94-1.27,1.68-1.65c0.74-0.39,1.54-0.58,2.41-0.58c0.89,0,1.65,0.14,2.27,0.4
			c0.62,0.27,1.11,0.66,1.49,1.16c0.38,0.5,0.65,1.12,0.8,1.84c0.17,0.73,0.25,1.55,0.25,2.49v8.09h-2.61v-7.77
			c0-1.34-0.18-2.31-0.58-2.93c-0.39-0.64-1.18-0.95-2.42-0.95c-0.44,0-0.81,0.04-1.13,0.12c-0.3,0.09-0.58,0.22-0.81,0.37
			c-0.23,0.17-0.42,0.37-0.58,0.57c-0.16,0.21-0.3,0.45-0.43,0.71c-0.06,0.13-0.12,0.3-0.16,0.52c-0.05,0.21-0.1,0.43-0.13,0.66
			c-0.04,0.22-0.06,0.44-0.1,0.66c-0.01,0.23-0.02,0.4-0.02,0.54v1.28v6.23h-2.61v-13.58h2.61V984.36z"/>
		<path class="st0" d="M614.1,996.12h-2.62v-25.19h2.62V996.12z"/>
		<path class="st0" d="M618.69,984.22c1.4-1.39,3.13-2.09,5.17-2.09c2.03,0,3.73,0.7,5.14,2.09c1.4,1.38,2.1,3.12,2.1,5.14
			c0,2.03-0.7,3.74-2.1,5.15c-1.41,1.38-3.11,2.08-5.14,2.08c-2.04,0-3.77-0.7-5.17-2.08c-1.4-1.41-2.09-3.12-2.09-5.15
			C616.59,987.34,617.28,985.6,618.69,984.22z M619.21,989.36c0,1.25,0.46,2.36,1.36,3.32c0.89,0.95,1.99,1.4,3.29,1.4
			c1.27,0,2.36-0.46,3.28-1.4c0.9-0.96,1.35-2.07,1.35-3.32c0-1.28-0.45-2.4-1.35-3.34c-0.92-0.93-2.01-1.39-3.28-1.39
			c-1.3,0-2.4,0.46-3.29,1.39C619.67,986.96,619.21,988.08,619.21,989.36z"/>
		<path class="st0" d="M646.23,996.12h-2.62V994h-0.06c-1.16,1.72-2.7,2.59-4.62,2.59c-1.99,0-3.58-0.71-4.76-2.12
			c-1.16-1.41-1.74-3.16-1.74-5.22c0-1.96,0.58-3.62,1.77-4.99c1.18-1.41,2.73-2.12,4.63-2.12c1.94,0,3.51,0.89,4.71,2.67h0.06
			v-2.26h2.62V996.12z M639.34,994.26c1.38,0,2.45-0.47,3.22-1.42c0.79-0.96,1.19-2.14,1.19-3.51c0-1.35-0.4-2.5-1.19-3.46
			c-0.78-0.94-1.84-1.41-3.22-1.41c-1.29,0-2.34,0.47-3.13,1.45c-0.78,0.95-1.17,2.08-1.17,3.42c0,1.37,0.39,2.54,1.17,3.48
			C637,993.78,638.05,994.26,639.34,994.26z"/>
		<path class="st0" d="M659.74,994h-0.05c-0.55,0.82-1.23,1.45-2.02,1.9c-0.8,0.46-1.67,0.69-2.6,0.69c-2.02,0-3.61-0.71-4.77-2.12
			c-1.16-1.41-1.74-3.16-1.74-5.22c0-1.96,0.6-3.62,1.77-4.99c1.18-1.41,2.72-2.12,4.62-2.12c1.95,0,3.52,0.89,4.73,2.67h0.05
			v-13.87h2.62v25.19h-2.62V994z M655.48,994.26c1.37,0,2.44-0.47,3.21-1.42c0.79-0.96,1.19-2.14,1.19-3.51
			c0-1.35-0.4-2.5-1.19-3.46c-0.78-0.94-1.84-1.41-3.21-1.41c-1.3,0-2.34,0.47-3.13,1.45c-0.77,0.95-1.16,2.08-1.16,3.42
			c0,1.37,0.39,2.54,1.16,3.48C653.13,993.78,654.18,994.26,655.48,994.26z"/>
		<path class="st0" d="M669.84,994.9c0,0.47-0.16,0.86-0.48,1.19c-0.34,0.33-0.74,0.5-1.21,0.5c-0.47,0-0.86-0.17-1.18-0.5
			c-0.34-0.33-0.5-0.72-0.5-1.19c0-0.44,0.16-0.84,0.5-1.18c0.32-0.33,0.71-0.5,1.18-0.5c0.46,0,0.86,0.17,1.21,0.5
			C669.68,994.06,669.84,994.45,669.84,994.9z"/>
		<path class="st0" d="M684.11,986.39c-1.08-1.22-2.38-1.83-3.88-1.83c-1.26,0-2.34,0.48-3.23,1.42c-0.88,0.96-1.29,2.09-1.29,3.34
			c0,1.42,0.42,2.57,1.29,3.45c0.91,0.92,2.04,1.37,3.39,1.37c1.39,0,2.64-0.62,3.72-1.8v3.33c-1.12,0.6-2.37,0.91-3.74,0.91
			c-2.02,0-3.74-0.7-5.17-2.07c-1.41-1.34-2.1-3.04-2.1-5.07c0-2.09,0.69-3.84,2.1-5.23c1.42-1.39,3.19-2.09,5.32-2.09
			c1.4,0,2.6,0.3,3.6,0.89V986.39z"/>
		<path class="st0" d="M687.8,984.22c1.41-1.39,3.14-2.09,5.16-2.09c2.03,0,3.75,0.7,5.13,2.09c1.42,1.38,2.12,3.12,2.12,5.14
			c0,2.03-0.7,3.74-2.12,5.15c-1.38,1.38-3.1,2.08-5.13,2.08c-2.03,0-3.75-0.7-5.16-2.08c-1.39-1.41-2.09-3.12-2.09-5.15
			C685.71,987.34,686.41,985.6,687.8,984.22z M688.33,989.36c0,1.25,0.45,2.36,1.37,3.32c0.87,0.95,1.98,1.4,3.27,1.4
			c1.27,0,2.38-0.46,3.28-1.4c0.91-0.96,1.36-2.07,1.36-3.32c0-1.28-0.45-2.4-1.36-3.34c-0.9-0.93-2-1.39-3.28-1.39
			c-1.29,0-2.4,0.46-3.27,1.39C688.78,986.96,688.33,988.08,688.33,989.36z"/>
		<path class="st0" d="M705.13,984.25h0.06c0.39-0.62,0.89-1.12,1.55-1.52c0.65-0.4,1.33-0.6,2.04-0.6c1.69,0,2.99,0.8,3.93,2.41
			c0.42-0.73,1.01-1.32,1.76-1.77c0.74-0.43,1.55-0.65,2.41-0.65c3.01,0,4.5,1.96,4.5,5.86v8.13h-2.61v-7.69
			c0-0.34-0.01-0.69-0.05-1.02c-0.02-0.35-0.08-0.68-0.15-0.99c-0.08-0.33-0.19-0.63-0.35-0.9c-0.16-0.26-0.38-0.51-0.64-0.72
			c-0.35-0.23-0.8-0.34-1.33-0.34c-0.55,0-1.01,0.11-1.39,0.34c-0.38,0.21-0.66,0.48-0.86,0.79c-0.21,0.32-0.37,0.73-0.47,1.21
			c-0.12,0.48-0.19,0.92-0.22,1.31c-0.03,0.38-0.04,0.83-0.04,1.34v6.67h-2.62v-7.2c0-0.46,0-0.84-0.02-1.15
			c-0.03-0.32-0.08-0.7-0.18-1.16c-0.09-0.51-0.21-0.87-0.37-1.11c-0.16-0.27-0.4-0.5-0.72-0.72c-0.34-0.21-0.73-0.31-1.19-0.31
			c-1.33,0-2.2,0.57-2.59,1.73c-0.17,0.56-0.29,1.05-0.35,1.55c-0.06,0.47-0.08,1.04-0.08,1.71v6.67h-2.62v-13.58h2.62V984.25z"/>
	</g>
</g>
<g id="Layer_2">
</g>
<g id="Layer_3">
	<g>
		<g>
			<path d="M389.06,810.8v-37.42c0-1.97,0.76-2.95,2.28-2.95h12.61c5.45,0,9.5,0.77,12.14,2.31c2.64,1.54,3.96,4.37,3.96,8.48
				c0,3.22-0.9,5.66-2.68,7.31c3.67,1.83,5.5,5.48,5.5,10.93v1.95c0,4.87-1.32,8.15-3.96,9.83c-2.64,1.68-6.95,2.52-12.94,2.52
				h-14.62C389.82,813.75,389.06,812.77,389.06,810.8z M403.95,787.32c4.34,0,7.3-0.38,8.89-1.14c1.59-0.76,2.38-2.35,2.38-4.76
				c0-2.37-0.79-3.93-2.38-4.69c-1.59-0.76-4.55-1.14-8.89-1.14h-10.06v11.74H403.95z M407.17,792.15h-13.28v16.77h12.07
				c4.92,0,8.16-0.44,9.72-1.31c1.56-0.87,2.35-2.94,2.35-6.2v-1.74c0-3.26-0.73-5.33-2.18-6.2
				C414.4,792.59,411.5,792.15,407.17,792.15z"/>
			<path d="M451.84,795.04c-0.67,0-1.27-0.27-1.81-0.8l-10.93-15.56v32.53c0,2.01-0.8,3.02-2.41,3.02c-1.61,0-2.41-0.94-2.41-2.82
				v-37.89c0-1.92,0.76-2.88,2.28-2.88c0.98,0,1.83,0.51,2.55,1.54l12.74,17.84l12.81-17.84c0.71-1.03,1.54-1.54,2.48-1.54
				c1.56,0,2.35,0.96,2.35,2.88v37.89c0,1.88-0.83,2.82-2.48,2.82c-1.57,0-2.35-1.01-2.35-3.02v-32.53l-10.93,15.56
				C453.18,794.77,452.55,795.04,451.84,795.04z"/>
			<path d="M524.07,807.31l10.87-35.21c0.4-1.25,1.25-1.88,2.55-1.88c1.52,0,2.28,0.69,2.28,2.08c0,0.27-0.09,0.67-0.27,1.21
				l-13.01,40.24h-4.96l-12.01-35.61l-11.94,35.61h-4.9l-13.08-40.51c-0.18-0.54-0.27-0.94-0.27-1.21c0-1.39,0.76-2.08,2.28-2.08
				c1.3,0,2.15,0.63,2.55,1.88l11,35.48l11.6-35.14c0.54-1.43,1.45-2.15,2.75-2.15c1.43,0,2.39,0.74,2.88,2.21L524.07,807.31z"/>
			<path d="M581.24,775.89c-0.92,0.65-1.82,0.97-2.72,0.97c-0.9,0-1.8-0.32-2.72-0.97c-0.92-0.65-1.37-1.46-1.37-2.45
				c0-0.98,0.44-1.8,1.31-2.45c0.87-0.65,1.8-0.97,2.78-0.97c0.89,0,1.8,0.33,2.72,0.97c0.91,0.65,1.37,1.47,1.37,2.45
				C582.62,774.42,582.16,775.24,581.24,775.89z M576.11,784.24c0-1.03,0.24-1.77,0.74-2.21c0.49-0.45,1.05-0.67,1.68-0.67
				c0.63,0,1.18,0.22,1.68,0.67c0.49,0.45,0.74,1.18,0.74,2.21v28.17c0,1.88-0.83,2.82-2.48,2.82c-0.63,0-1.17-0.21-1.64-0.64
				c-0.47-0.43-0.7-1.15-0.7-2.18V784.24z"/>
			<path d="M627.02,801.81c0,2.55-0.34,4.64-1.01,6.27c-0.67,1.63-1.72,2.88-3.15,3.76c-1.43,0.87-3.04,1.47-4.83,1.78
				c-1.79,0.31-4.02,0.47-6.71,0.47h-2.35c-5.46,0-9.45-0.83-11.97-2.48c-2.53-1.65-3.79-4.92-3.79-9.79c0-4.6,1.25-7.91,3.76-9.93
				c-2.5-1.79-3.76-4.96-3.76-9.52c0-2.1,0.27-3.88,0.8-5.33c0.54-1.45,1.21-2.59,2.01-3.42c0.8-0.83,1.96-1.45,3.45-1.88
				c1.5-0.42,2.92-0.69,4.26-0.8c1.34-0.11,3.09-0.17,5.23-0.17h2.35c2.15,0,3.89,0.06,5.23,0.17c1.34,0.11,2.75,0.38,4.23,0.8
				c1.48,0.43,2.62,1.05,3.42,1.88c0.8,0.83,1.48,1.97,2.01,3.42c0.54,1.45,0.8,3.23,0.8,5.33c0,4.65-1.23,7.82-3.69,9.52
				C625.79,793.94,627.02,797.25,627.02,801.81z M622.19,782.49c0-1.16-0.06-2.12-0.17-2.88c-0.11-0.76-0.38-1.41-0.8-1.94
				c-0.43-0.54-0.84-0.94-1.24-1.21c-0.4-0.27-1.12-0.47-2.15-0.6c-1.03-0.13-1.93-0.21-2.72-0.23c-0.78-0.02-2.05-0.03-3.79-0.03
				h-2.48c-1.48,0-2.54,0.01-3.19,0.03c-0.65,0.02-1.47,0.07-2.45,0.13c-0.98,0.07-1.67,0.19-2.05,0.37
				c-0.38,0.18-0.84,0.43-1.37,0.74c-0.54,0.31-0.9,0.73-1.07,1.24c-0.18,0.51-0.34,1.13-0.47,1.84c-0.13,0.72-0.2,1.57-0.2,2.55
				c0,0.98,0.07,1.82,0.2,2.52c0.13,0.69,0.29,1.29,0.47,1.78c0.18,0.49,0.53,0.9,1.04,1.21c0.51,0.31,0.98,0.56,1.41,0.74
				c0.42,0.18,1.11,0.31,2.05,0.4c0.94,0.09,1.78,0.15,2.52,0.17c0.74,0.02,1.82,0.03,3.25,0.03h2.35c1.48,0,2.57-0.01,3.29-0.03
				c0.71-0.02,1.55-0.07,2.52-0.13c0.96-0.07,1.64-0.2,2.05-0.4c0.4-0.2,0.85-0.45,1.34-0.74c0.49-0.29,0.83-0.69,1.01-1.21
				c0.18-0.51,0.34-1.12,0.47-1.81C622.12,784.32,622.19,783.48,622.19,782.49z M598.05,801.68c0,3.31,0.73,5.4,2.18,6.27
				c1.45,0.87,4.37,1.31,8.75,1.31h2.35c4.34,0,7.23-0.44,8.69-1.31c1.45-0.87,2.18-2.96,2.18-6.27c0-3.26-0.73-5.33-2.18-6.2
				c-1.45-0.87-4.35-1.31-8.69-1.31h-2.35c-4.34,0-7.24,0.44-8.72,1.31S598.05,798.41,598.05,801.68z"/>
		</g>
		<path d="M656.92,741.29H371.08c-0.63,0-1.14-0.51-1.14-1.14l0,0c0-0.63,0.51-1.14,1.14-1.14h285.84c0.63,0,1.14,0.51,1.14,1.14
			l0,0C658.06,740.77,657.55,741.29,656.92,741.29z"/>
		<path d="M656.92,848H371.08c-0.63,0-1.14-0.51-1.14-1.14l0,0c0-0.63,0.51-1.14,1.14-1.14h285.84c0.63,0,1.14,0.51,1.14,1.14l0,0
			C658.06,847.49,657.55,848,656.92,848z"/>
	</g>
	<g>
		<path class="st1" d="M191.85,243.97l-6.44-17.45c0,0,0-22.08-28.49-14.25s-21.37,9.26-20.66,16.38c0.71,7.12,7.12,9.97,7.12,9.97
			l10.38,3.28c2.1,0.66,4.25,1.12,6.43,1.38l8.83,1.04l7.84,7.84"/>
		<path class="st1" d="M812.95,243.97l6.44-17.45c0,0,0-22.08,28.49-14.25c28.49,7.84,21.37,9.26,20.66,16.38
			c-0.71,7.12-7.12,9.97-7.12,9.97l-10.38,3.28c-2.1,0.66-4.25,1.12-6.43,1.38l-8.83,1.04l-7.84,7.84"/>
		<path class="st2" d="M77.05,447.83c0,0-12.68,64.29-4.09,116.99c3.5,21.48,7.24,37.12,10.44,48.12
			c3.78,12.98,17.94,22.14,34.25,22.14h82.99c8.51,0,16.23-4.06,19.77-10.39l8.61-15.41"/>
		<path class="st2" d="M931.99,450.17c0,0,12.59,64.49,4.07,117.35c-3.48,21.55-7.19,37.24-10.37,48.27
			c-3.75,13.02-17.82,22.21-34.02,22.21h-82.45c-8.45,0-16.12-4.07-19.64-10.42l-5.59-9.54"/>
		<path class="st3" d="M922.46,613.41c0,0,12.88-84.31,11.71-154.57c-1.17-70.26-21.66-152.81-21.66-152.81s-18.74-19.91-48.01-36.3
			s-56.21-29.27-56.21-29.27l-66.75-83.14c0,0-17.56-19.91-22.25-22.25c-4.68-2.34-30.45-7.03-33.96-7.03s-5.85,2.34-5.85,2.34
			s-56.21-12.88-159.25-12.88h-30.96c-103.05,0-159.25,12.88-159.25,12.88s-2.34-2.34-5.85-2.34c-3.51,0-29.27,4.68-33.96,7.03
			c-4.68,2.34-22.25,22.25-22.25,22.25l-66.75,83.14c0,0-26.93,12.88-56.21,29.27S97,306.03,97,306.03s-20.49,82.55-21.66,152.81
			c-1.17,70.26,11.71,154.57,11.71,154.57l58.55,2.34l10.54-11.71c0,0,88.99,8.2,101.88,5.85s28.1-8.2,28.1-8.2
			s73.77,31.62,220.14,31.62s217.8-24.59,217.8-24.59l9.37-8.2c0,0,23.42,12.88,51.52,16.39s74.94-7.03,74.94-7.03
			s5.85,7.03,10.54,7.03S922.46,613.41,922.46,613.41z"/>
		<path class="st4" d="M286.19,414.62c0,0-93.69-15.12-112.69-21.12s-49-15-49-15s-16-5-18,7s-1,24,1,27s3,4,10,8s85,46,85,46
			s14,11,6,27s-21,41-21,41l-37.65,76.97l6.65-6.97l90.12,6.2l14.88-2.2l25-7c0,0,77.87,34.87,239.44,32.44
			s199.91-27.06,199.91-27.06l6.64-5.62c0,0,29.01,12.24,52.01,15.24s37-1,37-1l38-6l10,8l-60-121c0,0-11-17-1-26s15-9,15-9l39-22
			l25-13l17-9l4-6l1-4l1-21l-3-5l-3-3l-5-1l-9,2l-58,16c0,0-18,6-45,10s-53,8-53,8h-4l-205,18l-37.35-0.29L286.19,414.62z"/>
		<path class="st5" d="M211.17,251.58c0,0,71.43-99.53,90.17-108.9s72.6-16.39,197.9-16.39s183.84,12.88,196.72,17.56
			c12.88,4.68,46.16,40.76,59.04,57.15s39,50,39,50s-75.8,12.29-129.66,24c-53.86,11.71-67.92,18.74-77.28,35.13
			c-9.37,16.39-19.59,35.8-30.45,45.67c-12.88,11.71-81.97,11.71-98.36,1.17c-16.39-10.54-29.27-57.38-52.69-66.75
			C382.13,280.85,239.27,250.41,211.17,251.58z"/>
		<path class="st6" d="M298.8,410.53l174.11,15.34c16.45,1.45,29.32,14.78,30.2,31.27l1.33,24.88
			c0.97,18.13-14.22,32.98-32.33,31.61l-117.64-8.95c-37.38-2.84-68-30.84-74.16-67.82l-0.89-5.36
			C277.47,419.84,287.04,409.5,298.8,410.53z"/>
		<path class="st6" d="M717.86,410.53l-174.11,15.34c-16.45,1.45-29.32,14.78-30.2,31.27l-1.33,24.88
			c-0.97,18.13,14.22,32.98,32.33,31.61l117.64-8.95c37.38-2.84,68-30.84,74.16-67.82l0.89-5.36
			C739.19,419.84,729.62,409.5,717.86,410.53z"/>
		<path class="st7" d="M305.62,418.72l161.91,12.93c15.3,1.22,27.27,12.46,28.09,26.35l1.23,20.97c0.9,15.28-13.23,27.8-30.07,26.64
			l-109.4-7.54c-34.77-2.4-63.23-25.99-68.97-57.16l-0.83-4.52C285.78,426.56,294.68,417.85,305.62,418.72z"/>
		<path class="st7" d="M711.04,418.72l-161.91,12.93c-15.3,1.22-27.27,12.46-28.09,26.35l-1.23,20.97
			c-0.9,15.28,13.23,27.8,30.07,26.64l109.4-7.54c34.77-2.4,63.23-25.99,68.97-57.16l0.83-4.52
			C730.88,426.56,721.97,417.85,711.04,418.72z"/>
		<path class="st8" d="M489.28,494.56c0,0-2.34,4.68-24.59,4.68s-110.07-8.2-132.32-22.25c-22.25-14.05-38.64-55.04-12.88-53.87
			s145.2,10.54,156.91,14.05c11.71,3.51,17.56,14.05,17.56,31.62C493.96,486.36,493.96,486.36,489.28,494.56z"/>
		<path class="st8" d="M527.38,494.56c0,0,2.34,4.68,24.59,4.68s110.07-8.2,132.32-22.25c22.25-14.05,38.64-55.04,12.88-53.87
			s-145.2,10.54-156.91,14.05s-17.56,14.05-17.56,31.62C522.7,486.36,522.7,486.36,527.38,494.56z"/>
		<path class="st9" d="M97,305c0,0,15,15,20,35s7,30,7,30l1,5c0,0-15-5-19,1s-4,8-4,8v25c0,0,0,8,10,15s79,44,82,48s2,12,2,12
			l-32,70l-26.49,61.3L86,614c0,0-6-53-9-94s-1-87-1-87l8-68L97,305z"/>
		<path class="st9" d="M913,305c0,0-15.31,14.72-19,35c-4,22-3,26-3,26v8c0,0,15-4,19,2s3,13,3,13v20c0,0-1,10-13,17
			c-10.54,6.15-74,41-77,45c-1.13,1.51-2.85,2.82-4,5c-1.9,3.6-3,8-3,8l33,70l30,62l44-3c0,0,7-52,10-93s1-87,1-87l-8-68L913,305z"
			/>
		<path class="st1" d="M266,606c0,0,4-3,2-5s-5-5-36-9s-43-5-43-5s-2,0-1-4s15-34,15-34l18-39l12-27c0,0,21,10,25,17s19,48,24,70
			s3,24-3,28S266,606,266,606z"/>
		<path class="st1" d="M754,608c0,0-8-3-6-5s6-6,37-10s39-5,39-5s8,0,7-4s-15-35-15-35l-17-39l-12-29c0,0-24.45,12-28.45,19
			s-19,48-24,70s-3,24,3,28S754,608,754,608z"/>
		<path class="st10" d="M116.91,377.46c0,0,1.17,30.32,19.91,37.73c18.74,7.41,106.56,27.15,117.1,25.51
			c10.54-1.65,26.93-26.93,26.93-26.93"/>
		<path class="st10" d="M898.94,377.46c0,0-1.17,30.32-19.91,37.73c-18.74,7.41-106.56,27.15-117.1,25.51
			c-10.54-1.65-26.93-26.93-26.93-26.93"/>
		<path class="st11" d="M127.38,379.86c0,0,0.06,19.84,15.29,28.04c15.22,8.2,101.88,26.93,111.24,24.59
			c9.37-2.34,19.77-19.74,19.77-19.74"/>
		<path class="st11" d="M888.47,379.86c0,0-0.06,19.84-15.29,28.04c-15.22,8.2-101.88,26.93-111.24,24.59
			c-9.37-2.34-19.77-19.74-19.77-19.74"/>
		<path class="st12" d="M398,178c0,0,59-8,101-8s106,10,106,10l-50,90l-127-1C428,269,374,183,398,178z"/>
		<path class="st13" d="M354,276c0,0,99,7,147,7s145-5,145-5s-36.74,12.51-44.87,17.26c-8.13,4.74-12.4,13.26-18.77,24
			C576,330,564,354,555,358s-24,8-51,7s-43-4-47-8s-13.15-17.96-13.15-17.96s-16.19-30.81-25.02-38.43C410,293,407,290,390,285
			s-36-8-36-8V276z"/>
		<path class="st14" d="M442,334c0,0,18,17,65,17s64-14,64-14s-9.3,18.15-19.15,21.57s-18.44,7.01-46.35,5.93
			c-27.91-1.09-40.23-3.45-47-7s-11.2-12.59-11.2-12.59l-6.13-10.72L442,334z"/>
		<path class="st15" d="M178.5,255.5c-0.95-0.3,22-14,22-14l10,11c0,0,52,30,62,50s4,38,4,38S254.5,279.5,178.5,255.5z"/>
		<path class="st15" d="M831,253c0.95-0.3-21-12-21-12l-17.74,12.5c0,0-57.95,33.74-66.26,54.5c-8,20-2,36-2,36S755,277,831,253z"/>
		<path class="st16" d="M922.46,613.41c0,0,12.88-84.31,11.71-154.57c-1.17-70.26-21.66-152.81-21.66-152.81
			s-18.74-19.91-48.01-36.3s-56.21-29.27-56.21-29.27l-66.75-83.14c0,0-17.56-19.91-22.25-22.25c-4.68-2.34-30.45-7.03-33.96-7.03
			s-5.85,2.34-5.85,2.34s-56.21-12.88-159.25-12.88h-30.96c-103.05,0-159.25,12.88-159.25,12.88s-2.34-2.34-5.85-2.34
			c-3.51,0-29.27,4.68-33.96,7.03c-4.68,2.34-22.25,22.25-22.25,22.25l-66.75,83.14c0,0-26.93,12.88-56.21,29.27
			S97,306.03,97,306.03s-20.49,82.55-21.66,152.81c-1.17,70.26,11.71,154.57,11.71,154.57l58.55,2.34l10.54-11.71
			c0,0,88.99,8.2,101.88,5.85s28.1-8.2,28.1-8.2s73.77,31.62,220.14,31.62s217.8-24.59,217.8-24.59l9.37-8.2
			c0,0,23.42,12.88,51.52,16.39s74.94-7.03,74.94-7.03s5.85,7.03,10.54,7.03S922.46,613.41,922.46,613.41z"/>
		<path class="st17" d="M211.17,251.58c0,0,71.43-99.53,90.17-108.9s72.6-16.39,197.9-16.39s183.84,12.88,196.72,17.56
			c12.88,4.68,46.16,40.76,59.04,57.15s39,50,39,50s-75.8,12.29-129.66,24c-53.86,11.71-67.92,18.74-77.28,35.13
			c-9.37,16.39-19.59,35.8-30.45,45.67c-12.88,11.71-81.97,11.71-98.36,1.17c-16.39-10.54-29.27-57.38-52.69-66.75
			C382.13,280.85,239.27,250.41,211.17,251.58z"/>
		<path class="st18" d="M298.8,410.53l174.11,15.34c16.45,1.45,29.32,14.78,30.2,31.27l1.33,24.88
			c0.97,18.13-14.22,32.98-32.33,31.61l-117.64-8.95c-37.38-2.84-68-30.84-74.16-67.82l-0.89-5.36
			C277.47,419.84,287.04,409.5,298.8,410.53z"/>
		<path class="st19" d="M305.62,418.72l161.91,12.93c15.3,1.22,27.27,12.46,28.09,26.35l1.23,20.97
			c0.9,15.28-13.23,27.8-30.07,26.64l-109.4-7.54c-34.77-2.4-63.23-25.99-68.97-57.16l-0.83-4.52
			C285.78,426.56,294.68,417.85,305.62,418.72z"/>
		<path class="st20" d="M489.28,494.56c0,0-2.34,4.68-24.59,4.68s-110.07-8.2-132.32-22.25c-22.25-14.05-38.64-55.04-12.88-53.87
			s145.2,10.54,156.91,14.05c11.71,3.51,17.56,14.05,17.56,31.62C493.96,486.36,493.96,486.36,489.28,494.56z"/>
		<path class="st18" d="M717.86,410.53l-174.11,15.34c-16.45,1.45-29.32,14.78-30.2,31.27l-1.33,24.88
			c-0.97,18.13,14.22,32.98,32.33,31.61l117.64-8.95c37.38-2.84,68-30.84,74.16-67.82l0.89-5.36
			C739.19,419.84,729.62,409.5,717.86,410.53z"/>
		<path class="st19" d="M711.04,418.72l-161.91,12.93c-15.3,1.22-27.27,12.46-28.09,26.35l-1.23,20.97
			c-0.9,15.28,13.23,27.8,30.07,26.64l109.4-7.54c34.77-2.4,63.23-25.99,68.97-57.16l0.83-4.52
			C730.88,426.56,721.97,417.85,711.04,418.72z"/>
		<path class="st20" d="M527.38,494.56c0,0,2.34,4.68,24.59,4.68s110.07-8.2,132.32-22.25c22.25-14.05,38.64-55.04,12.88-53.87
			s-145.2,10.54-156.91,14.05s-17.56,14.05-17.56,31.62C522.7,486.36,522.7,486.36,527.38,494.56z"/>
		<path class="st20" d="M284.36,413.76c0,0-3.51,1.17-57.38-8.2c-38.17-6.64-83.39-20.33-106.5-27.75
			c-7.46-2.39-15.05,3.3-14.83,11.14l0.48,17.31c0.15,5.36,3.15,10.23,7.88,12.76l87.36,46.9c9.05,4.86,12.59,16.03,7.99,25.22
			l-61.84,123.51"/>
		<path class="st21" d="M287.13,457.4l-139.78-36.61c0,0,4.68,9.37,48.01,28.1c18.09,7.82,34.14,16.05,46.7,22.99
			c18.67,10.31,32.97,27.08,40.01,47.21c3.56,10.17,7.1,21.51,9.31,31.67c5.85,26.93,7.03,44.5,2.34,52.69"/>
		<g>
			<path class="st22" d="M209.41,472.31c7.26,2.72,14.39,5.78,21.45,9.01c7.01,3.34,13.97,6.82,20.45,11.25
				c1.61,1.11,3.18,2.31,4.64,3.7c0.73,0.68,1.41,1.45,2.02,2.29c0.61,0.85,1.07,1.73,1.53,2.6c1.79,3.51,3.26,7.11,4.71,10.72
				c2.87,7.23,5.47,14.54,7.94,21.91c2.41,7.38,4.66,14.81,6.71,22.3c2.02,7.5,3.97,15.03,5.21,22.73
				c0.58,3.85,1.16,7.73,0.88,11.73c-0.1,1-0.23,2.02-0.72,3.03c-0.22,0.51-0.69,1-1.04,1.28l-1.1,0.99
				c-1.53,1.24-3.09,2.42-4.72,3.48c-3.26,2.15-6.62,4.08-10.04,5.93c-3.41,1.84-6.88,3.58-10.4,5.2
				c6.82-3.67,13.6-7.46,19.89-11.94c1.58-1.1,3.09-2.29,4.54-3.53l1.03-0.98c0.39-0.35,0.59-0.58,0.76-0.97
				c0.35-0.75,0.47-1.69,0.53-2.61c0.17-3.75-0.47-7.6-1.14-11.37c-1.46-7.56-3.34-15.07-5.45-22.51
				c-2.1-7.44-4.41-14.83-6.86-22.16c-2.4-7.35-4.94-14.67-7.73-21.87c-1.41-3.59-2.85-7.19-4.56-10.6
				c-0.43-0.84-0.87-1.69-1.39-2.41c-0.51-0.73-1.13-1.42-1.79-2.08c-1.32-1.32-2.81-2.52-4.36-3.64
				c-6.23-4.48-13.1-8.12-19.98-11.62C223.55,478.67,216.5,475.44,209.41,472.31z"/>
		</g>
		<g>
			<path class="st23" d="M116.91,377.46c0.36,4.23,1.14,8.41,2.21,12.5c1.09,4.08,2.56,8.07,4.56,11.76
				c1.97,3.7,4.55,7.09,7.81,9.63c1.63,1.26,3.41,2.34,5.33,3.08c1.94,0.75,3.95,1.41,5.97,2.02c8.1,2.42,16.3,4.58,24.53,6.62
				c8.23,2.04,16.49,3.97,24.76,5.82c16.53,3.78,33.13,7.36,49.84,10.08c2.09,0.32,4.18,0.64,6.27,0.86
				c1.05,0.13,2.09,0.2,3.13,0.27c1.04,0.03,2.05,0.08,3-0.14c1.94-0.41,3.76-1.51,5.46-2.68c1.7-1.2,3.29-2.59,4.82-4.03
				c6.11-5.82,11.32-12.58,16.24-19.49c-2.25,3.6-4.68,7.09-7.25,10.47c-2.58,3.38-5.29,6.67-8.3,9.71
				c-1.51,1.51-3.1,2.96-4.84,4.24c-0.88,0.63-1.77,1.26-2.74,1.76c-0.96,0.53-1.99,0.98-3.1,1.23c-1.12,0.29-2.26,0.25-3.33,0.24
				c-1.08-0.05-2.16-0.1-3.22-0.2c-2.13-0.18-4.25-0.45-6.36-0.73c-8.44-1.13-16.79-2.76-25.12-4.39
				c-8.33-1.66-16.64-3.41-24.93-5.27c-8.28-1.91-16.54-3.9-24.77-6c-8.22-2.13-16.45-4.26-24.55-6.92
				c-2.03-0.66-4.04-1.37-6.04-2.19c-2.03-0.83-3.9-2.01-5.59-3.38c-3.38-2.76-5.98-6.33-7.89-10.17
				c-1.91-3.85-3.25-7.93-4.21-12.08C117.65,385.93,117.05,381.7,116.91,377.46z"/>
		</g>
		<g>
			<path class="st23" d="M127.38,379.86c0.42,7.29,2.6,14.63,7,20.47c2.19,2.89,4.93,5.41,8.14,7.11c1.59,0.87,3.28,1.56,4.99,2.19
				c1.71,0.65,3.45,1.23,5.19,1.79c13.98,4.39,28.27,7.83,42.58,11.06c14.31,3.24,28.69,6.21,43.18,8.5
				c3.62,0.55,7.26,1.06,10.9,1.32c0.91,0.03,1.82,0.11,2.72,0.07l0.68-0.01l0.65-0.09c0.44-0.02,0.86-0.22,1.28-0.35
				c0.87-0.23,1.65-0.7,2.46-1.1c0.77-0.48,1.54-0.95,2.27-1.5c2.91-2.19,5.45-4.87,7.8-7.67c2.33-2.83,4.49-5.8,6.46-8.9
				c-1.89,3.15-4,6.17-6.27,9.06c-2.3,2.87-4.78,5.61-7.7,7.91c-0.35,0.31-0.75,0.55-1.13,0.81c-0.39,0.25-0.76,0.53-1.17,0.76
				c-0.83,0.42-1.63,0.91-2.54,1.17c-0.45,0.14-0.87,0.35-1.36,0.39l-0.71,0.1l-0.7,0.02c-0.94,0.06-1.85-0.02-2.78-0.03
				c-3.68-0.22-7.33-0.69-10.97-1.19c-7.28-1.03-14.51-2.37-21.72-3.77c-7.21-1.41-14.4-2.91-21.57-4.52
				c-7.16-1.63-14.3-3.36-21.42-5.2c-7.1-1.87-14.21-3.77-21.18-6.11c-1.74-0.58-3.48-1.18-5.2-1.86c-1.72-0.66-3.43-1.38-5.05-2.29
				c-3.27-1.79-6.04-4.39-8.23-7.37C129.66,394.58,127.65,387.17,127.38,379.86z"/>
		</g>
		<path class="st24" d="M196.7,399.24l5.1,16.05c0.73,2.29,2.66,4,5.03,4.44l37.43,6.9c2.04,0.38,4.14-0.16,5.75-1.47l16.2-13.16"/>
		<path class="st25" d="M179.81,411.04l-35.64-9.49c-3.04-0.81-4.85-3.93-4.04-6.97l0.5-1.88c0.81-3.04,3.93-4.85,6.97-4.04
			l35.64,9.49c3.04,0.81,4.85,3.93,4.04,6.97l-0.5,1.88C185.98,410.04,182.85,411.85,179.81,411.04z"/>
		<g>
			<path class="st26" d="M136.81,383.31c-0.45,2.64-0.48,5.34-0.16,7.96c0.36,2.62,1.16,5.18,2.52,7.4c1.33,2.23,3.24,4.08,5.43,5.4
				c2.24,1.18,4.83,2,7.35,2.8c5.1,1.54,10.27,2.9,15.46,4.18c5.19,1.29,10.39,2.53,15.61,3.72c10.42,2.43,20.88,4.74,31.33,7.09
				c10.46,2.32,20.9,4.7,31.35,7.12c-10.59-1.66-21.15-3.53-31.67-5.59c-10.52-2.04-21.01-4.27-31.46-6.67
				c-10.44-2.47-20.87-4.97-31.1-8.37c-2.55-0.91-5.1-1.74-7.54-3.16c-2.34-1.53-4.29-3.6-5.61-6.03
				C135.74,394.25,135.54,388.48,136.81,383.31z"/>
		</g>
		<path class="st20" d="M731.49,413.76c0,0,3.51,1.17,57.38-8.2c38.17-6.64,83.39-20.33,106.5-27.75
			c7.46-2.39,15.05,3.3,14.83,11.14l-0.48,17.31c-0.15,5.36-3.15,10.23-7.88,12.76l-87.36,46.9c-9.05,4.86-12.59,16.03-7.99,25.22
			l61.84,123.51"/>
		<path class="st21" d="M728.71,457.4l139.78-36.61c0,0-4.68,9.37-48.01,28.1c-18.09,7.82-34.14,16.05-46.7,22.99
			c-18.67,10.31-32.97,27.08-40.01,47.21c-3.56,10.17-7.1,21.51-9.31,31.67c-5.85,26.93-7.03,44.5-2.34,52.69"/>
		<g>
			<path class="st22" d="M806.44,472.31c-7.09,3.13-14.13,6.37-21.02,9.89c-6.89,3.5-13.76,7.14-19.98,11.62
				c-1.55,1.12-3.04,2.32-4.36,3.64c-0.66,0.66-1.28,1.35-1.79,2.08c-0.52,0.73-0.96,1.57-1.39,2.41c-1.7,3.41-3.15,7.01-4.56,10.6
				c-2.79,7.2-5.33,14.52-7.73,21.87c-2.45,7.34-4.75,14.72-6.86,22.16c-2.11,7.44-3.99,14.94-5.45,22.51
				c-0.67,3.77-1.31,7.62-1.14,11.37c0.06,0.92,0.19,1.86,0.53,2.61c0.17,0.39,0.38,0.61,0.76,0.97l1.03,0.98
				c1.45,1.24,2.96,2.43,4.54,3.53c6.28,4.48,13.07,8.27,19.89,11.94c-3.52-1.62-6.99-3.36-10.4-5.2
				c-3.41-1.84-6.78-3.78-10.04-5.93c-1.63-1.06-3.19-2.25-4.72-3.48l-1.1-0.99c-0.34-0.28-0.81-0.77-1.04-1.28
				c-0.49-1.01-0.62-2.03-0.72-3.03c-0.28-4,0.3-7.88,0.88-11.73c1.24-7.7,3.19-15.24,5.21-22.73c2.06-7.49,4.31-14.92,6.71-22.3
				c2.47-7.36,5.07-14.68,7.94-21.91c1.45-3.61,2.92-7.2,4.71-10.72c0.46-0.87,0.92-1.76,1.53-2.6c0.61-0.85,1.29-1.61,2.02-2.29
				c1.46-1.38,3.02-2.58,4.64-3.7c6.48-4.42,13.44-7.91,20.45-11.25C792.04,478.08,799.17,475.02,806.44,472.31z"/>
		</g>
		<g>
			<path class="st23" d="M898.94,377.46c-0.15,4.24-0.74,8.47-1.69,12.63c-0.96,4.15-2.3,8.23-4.21,12.08
				c-1.92,3.83-4.52,7.4-7.89,10.17c-1.69,1.37-3.56,2.55-5.59,3.38c-2,0.82-4.01,1.53-6.04,2.19c-8.1,2.67-16.33,4.79-24.55,6.92
				c-8.23,2.11-16.49,4.1-24.77,6c-8.29,1.86-16.6,3.61-24.93,5.27c-8.34,1.62-16.68,3.25-25.12,4.39
				c-2.11,0.28-4.22,0.55-6.36,0.73c-1.06,0.11-2.14,0.16-3.22,0.2c-1.07,0.01-2.21,0.04-3.33-0.24c-1.11-0.26-2.14-0.71-3.1-1.23
				c-0.98-0.51-1.87-1.13-2.74-1.76c-1.74-1.28-3.33-2.73-4.84-4.24c-3.01-3.04-5.72-6.33-8.3-9.71c-2.58-3.38-5-6.88-7.25-10.47
				c4.91,6.91,10.12,13.67,16.24,19.49c1.53,1.44,3.12,2.83,4.82,4.03c1.7,1.17,3.52,2.27,5.46,2.68c0.95,0.23,1.96,0.17,3,0.14
				c1.04-0.07,2.08-0.14,3.13-0.27c2.09-0.22,4.18-0.54,6.27-0.86c16.71-2.72,33.31-6.3,49.84-10.08
				c8.28-1.85,16.54-3.78,24.76-5.82c8.23-2.04,16.43-4.21,24.53-6.62c2.02-0.61,4.03-1.27,5.97-2.02c1.92-0.73,3.7-1.81,5.33-3.08
				c3.26-2.55,5.84-5.94,7.81-9.63c2-3.69,3.47-7.68,4.56-11.76C897.81,385.87,898.58,381.69,898.94,377.46z"/>
		</g>
		<g>
			<path class="st23" d="M888.47,379.86c-0.27,7.3-2.27,14.72-6.61,20.76c-2.18,2.98-4.96,5.58-8.23,7.37
				c-1.62,0.91-3.33,1.64-5.05,2.29c-1.72,0.68-3.46,1.28-5.2,1.86c-6.98,2.34-14.08,4.24-21.18,6.11
				c-7.11,1.84-14.26,3.56-21.42,5.2c-7.17,1.61-14.36,3.11-21.57,4.52c-7.21,1.4-14.44,2.73-21.72,3.77
				c-3.64,0.51-7.29,0.97-10.97,1.19c-0.93,0.02-1.84,0.09-2.78,0.03l-0.7-0.02l-0.71-0.1c-0.49-0.04-0.91-0.24-1.36-0.39
				c-0.91-0.26-1.71-0.75-2.54-1.17c-0.41-0.23-0.78-0.51-1.17-0.76c-0.38-0.26-0.78-0.5-1.13-0.81c-2.91-2.29-5.4-5.04-7.7-7.91
				c-2.27-2.89-4.37-5.91-6.27-9.06c1.96,3.1,4.13,6.07,6.46,8.9c2.35,2.8,4.89,5.48,7.8,7.67c0.72,0.55,1.5,1.03,2.27,1.5
				c0.81,0.4,1.59,0.87,2.46,1.1c0.43,0.13,0.84,0.33,1.28,0.35l0.65,0.09l0.68,0.01c0.9,0.05,1.81-0.04,2.72-0.07
				c3.64-0.27,7.28-0.77,10.9-1.32c14.49-2.29,28.87-5.26,43.18-8.5c14.31-3.24,28.6-6.67,42.58-11.06
				c1.74-0.56,3.48-1.14,5.19-1.79c1.72-0.63,3.41-1.33,4.99-2.19c3.21-1.7,5.95-4.22,8.14-7.11
				C885.86,394.49,888.04,387.16,888.47,379.86z"/>
		</g>
		<path class="st24" d="M819.15,399.24l-5.1,16.05c-0.73,2.29-2.66,4-5.03,4.44l-37.43,6.9c-2.04,0.38-4.14-0.16-5.75-1.47
			L749.64,412"/>
		<path class="st25" d="M836.04,411.04l35.64-9.49c3.04-0.81,4.85-3.93,4.04-6.97l-0.5-1.88c-0.81-3.04-3.93-4.85-6.97-4.04
			l-35.64,9.49c-3.04,0.81-4.85,3.93-4.04,6.97l0.5,1.88C829.87,410.04,833,411.85,836.04,411.04z"/>
		<g>
			<path class="st26" d="M879.04,383.31c1.27,5.17,1.08,10.94-1.51,15.85c-1.31,2.43-3.27,4.5-5.61,6.03
				c-2.45,1.42-5,2.25-7.54,3.16c-10.23,3.39-20.67,5.89-31.1,8.37c-10.45,2.4-20.94,4.63-31.46,6.67
				c-10.52,2.06-21.08,3.93-31.67,5.59c10.44-2.42,20.89-4.8,31.35-7.12c10.45-2.35,20.91-4.66,31.33-7.09
				c5.22-1.19,10.42-2.43,15.61-3.72c5.19-1.27,10.36-2.64,15.46-4.18c2.52-0.8,5.11-1.62,7.35-2.8c2.19-1.31,4.1-3.17,5.43-5.4
				c1.36-2.22,2.16-4.78,2.52-7.4C879.52,388.65,879.49,385.95,879.04,383.31z"/>
		</g>
		<g>
			<path class="st27" d="M246.97,473.54c6.6,3.34,12.99,7.1,19.2,11.14c6.2,4.05,12.2,8.42,17.73,13.37
				c1.37,1.25,2.76,2.48,4.05,3.82c0.65,0.66,1.32,1.31,1.96,1.98l1.85,2.09c2.45,2.8,4.72,5.7,7.09,8.55l14.05,17.19l-0.34-0.2
				c16.36,2.62,32.84,4.66,49.32,6.46c8.24,0.91,16.5,1.69,24.76,2.46l12.39,1.09l12.4,0.96c33.08,2.48,66.25,3.7,99.41,3.79
				c33.17,0.09,66.34-0.98,99.45-2.99c33.1-2.13,66.19-4.88,99.05-9.4l-0.4,0.29c3.13-6.02,6.64-11.79,10.4-17.41
				c1.89-2.8,3.87-5.54,5.92-8.23c2.05-2.69,4.21-5.29,6.55-7.75c4.74-4.84,10.04-9.07,15.54-12.97c5.5-3.9,11.22-7.5,17.11-10.79
				c-5.84,3.37-11.5,7.04-16.94,11.01c-5.44,3.97-10.66,8.26-15.3,13.13c-2.28,2.46-4.39,5.08-6.4,7.78c-2,2.7-3.94,5.45-5.78,8.27
				c-3.66,5.64-7.09,11.45-10.15,17.42l-0.13,0.25l-0.27,0.04c-16.44,2.43-32.93,4.32-49.46,5.99c-16.52,1.65-33.07,3.05-49.64,4.1
				c-33.14,2.1-66.35,3.25-99.57,3.25c-16.61-0.1-33.22-0.37-49.81-1.11c-16.6-0.64-33.17-1.66-49.73-2.92
				c-16.56-1.23-33.09-2.85-49.59-4.77c-16.49-1.93-32.96-4.1-49.35-6.85l-0.21-0.03l-0.13-0.17l-13.88-17.32
				c-2.33-2.87-4.58-5.83-6.96-8.63l-1.8-2.09c-0.63-0.67-1.28-1.33-1.92-1.99c-1.26-1.35-2.62-2.59-3.97-3.85
				c-5.43-5-11.36-9.44-17.49-13.57C259.86,480.81,253.53,476.97,246.97,473.54z"/>
		</g>
		<path class="st28" d="M318.32,575.35l-19.91,24.59c0,0,77.28,25.76,207.26,26.93s208.43-21.08,208.43-21.08l-21.08-25.76
			c0,0-105.39,14.05-188.53,14.05S318.32,575.35,318.32,575.35z"/>
		<g>
			<path class="st29" d="M233.02,482.71l-9.99,22.77l-10.09,22.73l-20.32,45.38l-2.56,5.66l-1.28,2.83
				c-0.2,0.46-0.46,0.97-0.58,1.36c-0.13,0.42-0.14,0.87-0.05,1.31c0.17,0.87,0.79,1.64,1.6,1.98c0.41,0.18,0.82,0.22,1.37,0.26
				l1.55,0.13l6.19,0.55c8.26,0.77,16.51,1.59,24.74,2.62c8.23,1.03,16.45,2.16,24.61,3.66c4.07,0.78,8.14,1.63,12.13,2.79
				c1.99,0.6,3.98,1.23,5.82,2.21c0.88,0.5,1.88,1.07,2.25,2.08c0.17,0.52-0.05,1.07-0.39,1.45c-0.33,0.41-0.77,0.69-1.2,0.97
				c0.42-0.29,0.86-0.58,1.18-0.99c0.33-0.39,0.52-0.92,0.35-1.41c-0.37-0.97-1.36-1.52-2.25-1.99c-1.84-0.93-3.84-1.53-5.83-2.08
				c-4-1.08-8.07-1.84-12.15-2.54c-8.16-1.4-16.38-2.44-24.61-3.38c-8.23-0.91-16.47-1.76-24.73-2.48l-6.19-0.53l-1.55-0.13
				c-0.48-0.03-1.13-0.09-1.66-0.33c-1.1-0.46-1.93-1.49-2.17-2.66c-0.12-0.58-0.1-1.2,0.07-1.77c0.19-0.6,0.42-1.01,0.63-1.5
				l1.27-2.84l2.54-5.67l20.54-45.29l10.34-22.61L233.02,482.71z"/>
		</g>
		<g>
			<path class="st29" d="M786.71,481.67l10.2,23.07l10.1,23.11l20.04,46.29l2.48,5.8c0.41,0.98,0.83,1.89,1.24,2.94
				c0.39,1.13,0.22,2.44-0.45,3.43c-0.33,0.5-0.79,0.92-1.32,1.2c-0.51,0.3-1.18,0.42-1.7,0.45l-3.14,0.28l-6.27,0.62
				c-8.36,0.87-16.7,1.89-25.02,3.01c-8.32,1.14-16.63,2.41-24.87,4.05c-4.12,0.82-8.22,1.73-12.24,2.95c-2,0.63-4,1.31-5.83,2.33
				c-0.87,0.53-1.84,1.12-2.2,2.12c-0.17,0.5,0,1.05,0.32,1.46c0.32,0.41,0.74,0.74,1.18,1.03c-0.44-0.28-0.87-0.6-1.2-1.01
				c-0.34-0.4-0.52-0.97-0.36-1.49c0.35-1.04,1.33-1.66,2.2-2.21c1.83-1.06,3.82-1.78,5.82-2.45c4-1.31,8.1-2.29,12.21-3.19
				c8.23-1.75,16.54-3.1,24.86-4.34c8.32-1.23,16.67-2.25,25.03-3.16l6.28-0.64l3.14-0.29c0.98-0.03,1.79-0.48,2.31-1.25
				c0.51-0.75,0.63-1.74,0.33-2.6c-0.36-0.9-0.82-1.91-1.22-2.86l-2.5-5.79l-19.84-46.37l-9.84-23.22L786.71,481.67z"/>
		</g>
		<path class="st20" d="M191.85,243.97l-6.44-17.45c0,0,0-22.08-28.49-14.25s-21.37,9.26-20.66,16.38c0.71,7.12,7.12,9.97,7.12,9.97
			l10.38,3.28c2.1,0.66,4.25,1.12,6.43,1.38l8.83,1.04l7.84,7.84"/>
		<path class="st20" d="M183.27,247.89c0,0-4.99-9.26-10.68-10.68c-5.7-1.42-14.25-1.42-22.08-2.85
			c-7.84-1.42-14.25-4.27-14.25-4.27"/>
		<path class="st20" d="M812.95,243.97l6.44-17.45c0,0,0-22.08,28.49-14.25c28.49,7.84,21.37,9.26,20.66,16.38
			c-0.71,7.12-7.12,9.97-7.12,9.97l-10.38,3.28c-2.1,0.66-4.25,1.12-6.43,1.38l-8.83,1.04l-7.84,7.84"/>
		<path class="st20" d="M821.53,247.89c0,0,4.99-9.26,10.68-10.68s14.25-1.42,22.08-2.85s14.25-4.27,14.25-4.27"/>
		<path class="st30" d="M290.21,261.53l3.09-8.51c1.05-2.88,2.71-5.5,4.88-7.66l25.29-25.29c1.78-1.78,3.38-3.72,4.78-5.79
			s2.61-4.28,3.6-6.59l4.03-9.4l9.51-28.54c1.31-3.93,4.99-6.59,9.14-6.59h34.07c3.38,0,6.29,2.4,6.93,5.72l5.92,30.58l8.06,14.11
			c0.87,1.52,1.89,2.94,3.06,4.24l28.67,29.4c6.07,6.23,9.82,14.36,10.62,23.02l0,0"/>
		<path class="st31" d="M328.85,214.69l9.34,7.79c3.04,2.54,6.88,3.92,10.84,3.92h41.06c2.82,0,5.56-0.89,7.84-2.55l12.23-8.92"/>
		<path class="st30" d="M545.49,270.9l6.61-17.88c1.05-2.88,2.71-5.5,4.88-7.66l25.29-25.29c1.78-1.78,3.38-3.72,4.78-5.79
			s2.61-4.28,3.6-6.59l4.03-9.4l9.51-28.54c1.31-3.93,4.99-6.59,9.14-6.59h34.07c3.38,0,6.29,2.4,6.93,5.72l5.92,30.58l8.06,14.11
			c0.87,1.52,1.89,2.94,3.06,4.24l28.67,29.4c6.07,6.23,9.76,10.33,10.56,19l0,0"/>
		<path class="st31" d="M587.64,214.69l9.34,7.79c3.04,2.54,6.88,3.92,10.84,3.92h41.06c2.82,0,5.56-0.89,7.84-2.55l12.23-8.92"/>
		<path class="st32" d="M573.85,271.73c0,0,5.59-40.65,55.95-40.65c50.35,0,52.88,39.75,52.88,39.75"/>
		<path class="st33" d="M397.36,178.98c0,0,43.33-8.2,105.39-8.2s98.36,9.37,98.36,9.37"/>
		<path class="st20" d="M263.86,256.26c0,0,32.79-85.48,73.77-120.61"/>
		<path class="st20" d="M650.39,135.1c0,0,55.24,38.52,86.11,125.4"/>
		<g>
			<path d="M77.39,447.9c-0.36,3.47-0.62,6.95-0.87,10.43c-0.27,3.47-0.53,6.94-0.72,10.42l-0.6,10.4
				c-0.13,3.47-0.34,6.93-0.39,10.4l-0.18,5.19c-0.06,1.73-0.06,3.46-0.1,5.19l-0.07,5.18l0.04,5.18c0.01,3.45,0.07,6.89,0.15,10.33
				c0.03,3.44,0.24,6.87,0.41,10.3c0.12,3.43,0.48,6.84,0.76,10.24c0.2,3.42,0.66,6.79,1.02,10.18l0.28,2.54
				c0.1,0.84,0.26,1.68,0.38,2.51l0.79,5.02l0.4,2.51l0.48,2.54l0.98,5.08c1.33,6.76,2.64,13.52,4.2,20.2
				c0.77,3.34,1.58,6.67,2.44,9.98l1.33,4.94l0.7,2.46l0.36,1.22c0.12,0.39,0.24,0.87,0.35,1.13c1.48,4.99,5.22,9.46,10.1,12.52
				c2.43,1.54,5.14,2.75,7.97,3.6c2.84,0.83,5.81,1.29,8.81,1.47l1.13,0.07l1.29,0.03l2.61,0.05l5.23,0.1l10.45,0.21
				c3.48,0.08,6.97,0.12,10.45,0.23l10.45,0.35c6.97,0.25,13.94,0.41,20.9,0.74l20.9,0.98c0.92,0.06,1.61,0.08,2.4,0.09l1.16-0.03
				l1.15-0.1c1.54-0.16,3.07-0.48,4.55-0.95c2.97-0.93,5.71-2.57,7.91-4.77c0.29-0.27,0.54-0.56,0.79-0.86
				c0.26-0.29,0.5-0.6,0.72-0.92l0.35-0.47l0.36-0.55l0.72-1.1l2.88-4.38l5.88-8.69l0.61,0.34l-5.08,9.14l-2.54,4.57
				c-0.83,1.51-1.69,3.1-2.85,4.45c-2.29,2.73-5.32,4.79-8.61,6.08c-3.29,1.31-6.87,1.89-10.38,1.83l-41.81,0.09
				c-13.95,0.01-27.85,0.11-41.83,0.04c-3.53-0.11-7.05-0.63-10.46-1.59c-3.4-0.98-6.68-2.41-9.7-4.27
				c-6.02-3.69-11.06-9.36-13.19-16.25c-3.92-13.44-6.76-27.11-9.19-40.85l-0.87-5.16l-0.42-2.58l-0.35-2.6l-0.7-5.19
				c-0.11-0.87-0.25-1.73-0.33-2.6l-0.23-2.61c-0.28-3.48-0.69-6.95-0.8-10.44c-0.16-3.49-0.4-6.97-0.39-10.46
				c-0.28-13.96,0.35-27.92,1.56-41.81c0.26-3.48,0.69-6.94,1.03-10.41c0.42-3.46,0.79-6.93,1.28-10.38
				c0.92-6.91,1.98-13.81,3.28-20.67L77.39,447.9z"/>
		</g>
		<g>
			<path d="M932.34,450.1c3.73,13.23,6.23,26.75,8.24,40.37c1.87,13.63,3.15,27.4,3.33,41.26c0.11,6.93,0.05,13.89-0.46,20.85
				l-0.41,5.22l-0.53,5.23l-0.66,5.23l-0.74,5.12c-0.98,6.83-2.29,13.61-3.65,20.4c-1.4,6.78-2.95,13.55-4.75,20.29l-0.69,2.53
				l-0.18,0.63l-0.09,0.32l-0.12,0.38c-0.17,0.51-0.31,1.02-0.51,1.51c-0.73,2-1.66,3.91-2.75,5.71c-2.18,3.59-4.99,6.69-8.14,9.25
				c-6.32,5.12-13.92,8.08-21.65,9.16c-1.94,0.26-3.89,0.37-5.83,0.38c-1.02,0.01-1.84-0.02-2.69-0.03l-2.56-0.05l-10.24-0.2
				c-6.83-0.15-13.65-0.23-20.48-0.49l-20.48-0.68l-20.48-0.92l-5.12-0.23l-1.28-0.07l-1.41-0.11c-0.95-0.08-1.9-0.22-2.84-0.41
				c-3.75-0.7-7.33-2.21-10.44-4.4c-1.55-1.1-2.98-2.38-4.17-3.86c-1.2-1.44-2.22-3.19-2.89-4.76c-1.4-3.12-2.68-6.32-3.99-9.5
				l0.6-0.35l5.21,8.82c1.59,2.98,3.9,5.5,6.77,7.27c2.84,1.77,6.07,2.94,9.39,3.37c1.67,0.23,3.33,0.27,5.05,0.25l5.12-0.01
				l40.95-0.09l20.48-0.04l10.24-0.02c1.7-0.01,3.43,0.01,5.11-0.03c1.68-0.04,3.36-0.18,5.02-0.42c6.64-0.98,13.09-3.59,18.26-7.86
				c2.58-2.12,4.83-4.66,6.53-7.52c0.85-1.43,1.57-2.94,2.12-4.5c0.54-1.55,0.97-3.23,1.43-4.86c3.61-13.13,6.37-26.5,8.68-39.94
				c2.46-13.41,3.57-27.01,3.8-40.64c0.24-13.63-0.36-27.27-1.52-40.85c-1.18-13.58-2.87-27.14-5.29-40.55L932.34,450.1z"/>
		</g>
		<g>
			<path class="st34" d="M181.9,395.21c0,0-41.57-86.84-35.71-111.43s56.21-39.81,56.21-39.81s-50.35,24.59-50.35,39.81
				s5.85,36.3,16.39,62.06c10.54,25.76,24.59,51.52,24.59,51.52"/>
			<path class="st35" d="M181.9,395.21c-3.52-7.06-6.88-14.21-10.12-21.4c-3.24-7.2-6.4-14.44-9.4-21.74
				c-5.91-14.64-11.48-29.47-15.37-44.88c-0.93-3.86-1.73-7.77-2.26-11.75l-0.3-3.01l-0.11-3.04c0-1.02,0.09-2.05,0.13-3.08
				c0.14-1.03,0.29-2.08,0.52-3.1c1.04-4.06,3.14-7.73,5.67-10.92c2.55-3.19,5.54-5.95,8.68-8.45c6.32-4.98,13.29-8.95,20.45-12.42
				c7.18-3.45,14.53-6.42,22.16-8.88l1.09,2.78c-6.93,3.44-13.78,7.19-20.44,11.18c-6.64,4.02-13.15,8.29-19.05,13.23
				c-2.92,2.48-5.74,5.13-7.86,8.16c-1.03,1.51-1.92,3.13-2.24,4.76l-0.12,1.22l0.03,1.43c0,0.96,0.05,1.91,0.12,2.87
				c0.51,7.67,2.08,15.29,4.01,22.81c1.98,7.51,4.36,14.93,7.02,22.25c2.65,7.33,5.53,14.58,8.58,21.75
				c6.07,14.37,12.84,28.46,19.92,42.39c-3.85-6.8-7.52-13.7-11.05-20.68c-3.53-6.97-6.96-14-10.21-21.12
				c-3.22-7.13-6.22-14.37-9.01-21.68c-2.8-7.32-5.33-14.74-7.47-22.31c-1.04-3.79-2-7.61-2.77-11.48
				c-0.75-3.87-1.31-7.79-1.6-11.76c-0.08-0.99-0.14-1.98-0.15-2.98l-0.04-1.49c0.03-0.54,0.09-1.13,0.15-1.7
				c0.42-2.22,1.48-4.09,2.63-5.8c2.35-3.39,5.28-6.15,8.28-8.73c6.06-5.13,12.64-9.48,19.33-13.59
				c6.72-4.08,13.56-7.88,20.61-11.43l1.09,2.78c-7.4,2.34-14.74,5.25-21.79,8.59c-7.04,3.37-13.89,7.22-20,11.98
				c-3.04,2.39-5.9,5-8.29,7.97c-2.38,2.97-4.28,6.3-5.23,9.89c-0.21,0.9-0.34,1.81-0.48,2.72c-0.04,0.94-0.13,1.88-0.14,2.83
				l0.09,2.87l0.26,2.88c0.44,3.85,1.15,7.7,2,11.51c3.55,15.27,8.87,30.16,14.49,44.87C169.33,366.26,175.48,380.79,181.9,395.21z"
				/>
		</g>
		<g>
			<path class="st34" d="M828.88,397.55c0,0,41.57-86.84,35.71-111.43c-5.85-24.59-56.21-39.81-56.21-39.81s50.35,24.59,50.35,39.81
				s-5.85,36.3-16.39,62.06s-24.59,51.52-24.59,51.52"/>
			<path class="st35" d="M828.88,397.55c6.41-14.42,12.57-28.94,18.16-43.68c5.62-14.71,10.93-29.6,14.49-44.87
				c0.85-3.82,1.56-7.66,2-11.51l0.26-2.88l0.09-2.87c-0.01-0.95-0.1-1.89-0.14-2.83c-0.14-0.92-0.27-1.82-0.48-2.72
				c-0.95-3.59-2.85-6.92-5.23-9.89c-2.39-2.97-5.25-5.58-8.29-7.97c-6.11-4.76-12.95-8.61-20-11.98
				c-7.05-3.35-14.39-6.25-21.79-8.59l1.09-2.78c7.04,3.54,13.89,7.34,20.61,11.43c6.69,4.11,13.27,8.46,19.33,13.59
				c3.01,2.59,5.93,5.34,8.28,8.73c1.14,1.71,2.2,3.57,2.63,5.8c0.06,0.56,0.13,1.15,0.15,1.69l-0.04,1.49
				c-0.01,1-0.07,1.99-0.15,2.98c-0.28,3.96-0.84,7.88-1.6,11.76c-0.78,3.87-1.73,7.69-2.77,11.48c-2.13,7.56-4.67,14.99-7.47,22.31
				c-2.8,7.32-5.79,14.55-9.01,21.68c-3.25,7.12-6.67,14.15-10.21,21.12c-3.53,6.97-7.2,13.88-11.05,20.68
				c7.08-13.93,13.84-28.02,19.92-42.39c3.06-7.17,5.93-14.42,8.58-21.75c2.66-7.32,5.04-14.74,7.02-22.25
				c1.93-7.51,3.49-15.14,4.01-22.81c0.07-0.96,0.12-1.92,0.12-2.87l0.03-1.43l-0.12-1.22c-0.31-1.64-1.2-3.25-2.24-4.76
				c-2.12-3.03-4.94-5.69-7.86-8.16c-5.9-4.94-12.41-9.21-19.05-13.23c-6.65-3.99-13.5-7.74-20.44-11.18l1.09-2.78
				c7.63,2.46,14.98,5.42,22.16,8.88c7.15,3.48,14.13,7.44,20.45,12.42c3.14,2.5,6.13,5.26,8.68,8.45
				c2.53,3.19,4.62,6.85,5.67,10.92c0.23,1.02,0.38,2.07,0.52,3.1c0.04,1.03,0.13,2.06,0.13,3.08l-0.11,3.04l-0.3,3.01
				c-0.53,3.98-1.32,7.89-2.26,11.75c-3.88,15.42-9.45,30.24-15.36,44.88c-3.01,7.3-6.16,14.54-9.4,21.74
				C835.76,383.34,832.4,390.49,828.88,397.55z"/>
		</g>
		<g>
			<path class="st35" d="M205.9,242.79c4.78-7.02,9.8-13.86,14.9-20.63c2.53-3.4,5.14-6.74,7.71-10.11l7.84-10l7.97-9.9
				c2.7-3.27,5.36-6.57,8.1-9.8c5.44-6.5,10.97-12.93,16.72-19.18c-4.78,7.02-9.79,13.86-14.89,20.63
				c-2.53,3.4-5.14,6.74-7.71,10.11l-7.84,10l-7.97,9.9c-2.7,3.27-5.36,6.57-8.1,9.8C217.18,230.11,211.66,236.55,205.9,242.79z"/>
		</g>
		<g>
			<path class="st35" d="M745.72,174.88c5.35,5.36,10.48,10.9,15.53,16.52c2.54,2.79,5.01,5.65,7.51,8.47l7.38,8.58l7.26,8.69
				c2.38,2.93,4.79,5.83,7.13,8.8c4.71,5.9,9.34,11.87,13.74,18.03c-5.36-5.35-10.48-10.9-15.53-16.52
				c-2.55-2.79-5.01-5.65-7.51-8.47l-7.38-8.59l-7.26-8.69c-2.38-2.93-4.79-5.83-7.13-8.8C754.76,187,750.13,181.04,745.72,174.88z"
				/>
		</g>
		<g>
			<path class="st36" d="M208.83,251.58c10.84,5.86,21.29,12.44,31.3,19.65c5.01,3.6,9.87,7.42,14.52,11.48
				c4.64,4.07,9.09,8.38,13.11,13.1c1.95,2.4,3.87,4.85,5.48,7.51c0.87,1.29,1.54,2.7,2.29,4.06c0.62,1.43,1.32,2.83,1.76,4.34
				c0.25,0.74,0.52,1.48,0.65,2.25c0.15,0.77,0.37,1.53,0.46,2.3l0.51,4.63c0.1,1.55,0.07,3.1,0.11,4.65
				c0.04,0.78-0.05,1.55-0.11,2.32l-0.19,2.32c-0.68,6.16-2.38,12.22-5.15,17.76c-2.78,5.51-6.32,10.7-10.87,14.87
				c4.38-4.34,7.81-9.55,10.43-15.09c2.66-5.53,4.25-11.54,4.82-17.62l0.15-2.29c0.05-0.76,0.12-1.52,0.08-2.29
				c-0.05-1.53-0.02-3.06-0.13-4.58l-0.52-4.55c-0.09-0.76-0.31-1.48-0.46-2.22c-0.13-0.75-0.4-1.46-0.64-2.18
				c-0.43-1.46-1.12-2.82-1.73-4.21c-0.74-1.33-1.41-2.7-2.27-3.97c-1.59-2.61-3.5-5.01-5.43-7.38
				c-7.92-9.37-17.48-17.25-27.31-24.6c-4.93-3.68-10-7.18-15.15-10.54C219.39,257.92,214.16,254.67,208.83,251.58z"/>
		</g>
		<g>
			<path class="st36" d="M791.66,253.92c-5.33,3.09-10.56,6.34-15.7,9.73c-5.15,3.37-10.22,6.86-15.15,10.54
				c-9.84,7.35-19.39,15.23-27.32,24.6c-1.94,2.37-3.84,4.77-5.43,7.38c-0.86,1.27-1.53,2.64-2.27,3.97
				c-0.61,1.39-1.3,2.75-1.73,4.21c-0.24,0.72-0.51,1.43-0.64,2.18c-0.15,0.74-0.37,1.47-0.46,2.22l-0.52,4.55
				c-0.11,1.52-0.08,3.05-0.13,4.58c-0.05,0.76,0.02,1.53,0.08,2.29l0.15,2.29c0.58,6.08,2.17,12.09,4.82,17.62
				c2.61,5.54,6.04,10.75,10.43,15.09c-4.55-4.18-8.08-9.36-10.87-14.87c-2.77-5.54-4.47-11.6-5.15-17.76l-0.19-2.32
				c-0.06-0.77-0.15-1.55-0.11-2.32c0.04-1.55,0.01-3.11,0.11-4.65l0.51-4.63c0.09-0.77,0.31-1.53,0.46-2.3
				c0.14-0.78,0.4-1.51,0.65-2.25c0.44-1.51,1.14-2.9,1.76-4.34c0.75-1.36,1.43-2.77,2.29-4.06c1.61-2.66,3.52-5.11,5.48-7.51
				c4.01-4.72,8.46-9.03,13.11-13.1c4.65-4.06,9.51-7.87,14.52-11.48C770.37,266.36,780.82,259.78,791.66,253.92z"/>
		</g>
		<g>
			<path class="st37" d="M137.4,614.58c0.41-1.63,1.11-3.17,1.71-4.73l1.93-4.65l3.97-9.26l8.08-18.45
				c5.41-12.29,10.96-24.52,16.47-36.77l16.63-36.7l8.35-18.33c1.47-2.95,1.78-6.39,0.78-9.5c-0.98-3.12-3.23-5.73-6.13-7.28
				l-34.96-20.04l-34.89-20.15l-4.36-2.52c-1.44-0.87-2.93-1.6-4.33-2.64c-2.76-2.02-5.01-4.73-6.53-7.79
				c-1.52-3.06-2.27-6.5-2.23-9.9l0.02-10.07l0.02-10.07c-0.02-1.68,0.14-3.45,0.74-5.07c0.59-1.62,1.52-3.12,2.71-4.36
				c2.37-2.51,5.8-3.97,9.25-3.9c0.86-0.01,1.72,0.14,2.56,0.28l2.46,0.52l4.93,1.05l-0.35,0.31c-0.68-6.28-1.78-12.54-3.15-18.72
				c-1.4-6.17-3.04-12.3-5.14-18.28c-1.04-2.99-2.18-5.95-3.48-8.84c-1.28-2.89-2.68-5.74-4.27-8.48c-3.13-5.49-7-10.63-11.78-14.81
				c4.82,4.13,8.74,9.24,11.94,14.71c1.62,2.73,3.05,5.57,4.36,8.46c1.32,2.89,2.5,5.84,3.57,8.83c2.16,5.97,3.89,12.1,5.3,18.29
				c1.39,6.2,2.52,12.45,3.22,18.77l0.04,0.4l-0.4-0.08l-4.93-1.03c-1.65-0.32-3.28-0.79-4.9-0.78c-3.27-0.05-6.53,1.35-8.77,3.73
				c-1.12,1.19-2,2.6-2.56,4.14c-0.57,1.55-0.71,3.17-0.69,4.84l0.02,10.07l0.02,10.07c-0.03,3.31,0.71,6.6,2.19,9.55
				c1.47,2.95,3.64,5.55,6.31,7.48c1.3,0.97,2.84,1.73,4.28,2.58l4.37,2.5l34.95,20.03l34.89,20.14c3.03,1.62,5.47,4.46,6.49,7.78
				c1.07,3.31,0.69,7.02-0.85,10.08l-8.41,18.31l-16.76,36.64l-16.66,36.68l-8.26,18.37l-4.06,9.22l-1.98,4.63
				C138.54,611.43,137.82,612.96,137.4,614.58z"/>
		</g>
		<g>
			<path class="st37" d="M878.04,614.58c-0.18-0.83-0.56-1.59-0.88-2.37l-1.03-2.32l-2.14-4.6l-4.39-9.14l-8.93-18.22l-17.91-36.42
				c-5.96-12.15-11.91-24.3-17.77-36.49l-4.37-9.16l-2.16-4.59l-1.07-2.3c-0.34-0.76-0.75-1.52-1-2.39
				c-0.5-1.71-0.45-3.52-0.11-5.21c0.34-1.7,0.96-3.34,1.76-4.86c1.61-3.04,3.85-5.79,6.75-7.72l35.15-20.32l35.21-20.18l4.4-2.52
				l2.2-1.26c0.73-0.42,1.48-0.83,2.14-1.31c2.72-1.89,4.98-4.45,6.52-7.39c3.39-5.93,2.14-13.02,2.4-19.72l0.02-10.15
				c0.05-1.7-0.07-3.32-0.63-4.89c-0.53-1.56-1.39-3-2.51-4.21c-2.22-2.43-5.49-3.88-8.8-3.84c-1.64-0.02-3.27,0.46-4.94,0.78
				l-4.97,1.04l-0.34,0.07l-0.01-0.34c-0.19-6.17,0.11-12.33,0.71-18.46c0.61-6.13,1.63-12.22,3.14-18.2
				c1.52-5.97,3.53-11.83,6.35-17.31c2.81-5.47,6.46-10.57,11.17-14.55c-4.67,4.02-8.26,9.15-11.01,14.63
				c-2.75,5.5-4.7,11.36-6.15,17.32c-1.44,5.97-2.37,12.05-2.98,18.16c-0.58,6.11-0.85,12.26-0.65,18.38l-0.35-0.27l4.96-1.05
				l2.48-0.53c0.84-0.18,1.71-0.28,2.58-0.29c3.48-0.06,6.93,1.46,9.28,4.02c1.18,1.27,2.1,2.79,2.66,4.43
				c0.28,0.82,0.49,1.67,0.59,2.54c0.11,0.87,0.1,1.74,0.1,2.57l0.02,10.15l0.02,10.15c0,3.44-0.84,6.88-2.44,9.94
				c-1.59,3.06-3.92,5.72-6.75,7.7c-0.71,0.51-1.45,0.92-2.18,1.34l-2.2,1.27l-4.39,2.54l-35.15,20.3l-35.19,20.19
				c-2.74,1.81-4.93,4.46-6.49,7.38c-0.77,1.46-1.37,3.03-1.7,4.64c-0.33,1.61-0.37,3.28,0.08,4.83c0.21,0.76,0.61,1.5,0.95,2.28
				l1.06,2.3l2.14,4.6l4.34,9.17c5.83,12.21,11.74,24.38,17.65,36.54c5.91,12.17,11.87,24.31,17.72,36.51l8.75,18.31l4.31,9.19
				l2.1,4.62l1.01,2.33C877.5,612.98,877.87,613.75,878.04,614.58z"/>
		</g>
		<line class="st20" x1="489.28" y1="431.32" x2="526.75" y2="431.32"/>
		<line class="st20" x1="493.58" y1="507.17" x2="522.07" y2="507.17"/>
		<g>
			<path d="M349.02,275.32c12.41,0.97,24.82,1.79,37.24,2.53c12.42,0.78,24.84,1.48,37.27,2.08c24.86,1.15,49.73,2.01,74.61,2.12
				c24.88,0.23,49.76-0.12,74.64-0.83c12.44-0.37,24.87-0.83,37.3-1.39c12.43-0.52,24.86-1.12,37.28-1.91
				c-12.41,0.95-24.83,1.72-37.26,2.4c-12.43,0.63-24.86,1.14-37.3,1.57c-24.88,0.82-49.77,1.28-74.67,1.16
				c-24.9-0.22-49.78-1.19-74.63-2.46c-12.43-0.66-24.85-1.41-37.27-2.26C373.82,277.43,361.41,276.45,349.02,275.32z"/>
		</g>
		<g>
			<path d="M439.51,331.23c1.87,2.24,4.18,4.07,6.6,5.68c0.59,0.43,1.21,0.8,1.84,1.17l1.87,1.12c1.3,0.65,2.57,1.36,3.89,1.97
				c1.34,0.57,2.65,1.2,4,1.74l4.09,1.51c2.78,0.84,5.54,1.77,8.39,2.36c11.31,2.7,22.98,3.78,34.61,3.8
				c11.64,0.07,23.32-0.51,34.8-2.4c5.74-0.94,11.42-2.27,16.93-4.13l2.07-0.7l2.02-0.81c1.36-0.51,2.66-1.17,3.98-1.79
				c1.29-0.68,2.57-1.36,3.79-2.17c1.22-0.79,2.42-1.64,3.44-2.68c-2.01,2.13-4.56,3.66-7.1,5.09c-1.3,0.66-2.6,1.35-3.95,1.9
				l-2.02,0.87l-2.06,0.76c-5.51,1.97-11.21,3.39-16.97,4.43c-1.43,0.3-2.89,0.46-4.33,0.69c-1.45,0.2-2.89,0.46-4.35,0.59
				l-4.36,0.44c-1.45,0.16-2.91,0.3-4.37,0.36c-5.83,0.41-11.68,0.56-17.53,0.56c-11.69-0.1-23.43-1.17-34.79-4.05
				c-2.86-0.65-5.63-1.62-8.41-2.51l-4.1-1.58c-1.35-0.57-2.67-1.21-4-1.82c-1.31-0.64-2.58-1.39-3.87-2.08l-1.86-1.17
				c-0.62-0.39-1.24-0.78-1.82-1.22C443.57,335.45,441.3,333.54,439.51,331.23z"/>
		</g>
		<path class="st38" d="M524.66,156.5h-54.38c-3.09,0-5.6-2.51-5.6-5.6v-8.8c0-3.09,2.51-5.6,5.6-5.6h54.38c3.09,0,5.6,2.51,5.6,5.6
			v8.8C530.26,153.99,527.76,156.5,524.66,156.5z"/>
		<g>
			<path class="st39" d="M189,382c26.24,4.44,52.55,8.38,78.93,11.85c26.36,3.54,52.79,6.64,79.25,9.3
				c26.47,2.63,52.97,4.8,79.5,6.53l19.91,1.04l9.96,0.51l9.96,0.33l19.93,0.63l19.93,0.21c3.32,0.02,6.64,0.13,9.97,0.1l9.96-0.12
				c6.64-0.1,13.29-0.11,19.93-0.29c13.28-0.54,26.57-0.85,39.83-1.8l9.95-0.6l4.98-0.3c1.66-0.11,3.31-0.26,4.97-0.39l19.87-1.62
				c6.62-0.53,13.23-1.3,19.85-1.92l9.92-0.96l9.91-1.13l9.91-1.13c3.3-0.37,6.61-0.75,9.9-1.19l19.78-2.57l19.74-2.85
				c6.58-0.96,13.14-2.06,19.71-3.07c26.27-4.15,52.45-8.95,78.47-14.53c-25.87,6.25-52.01,11.34-78.22,15.98
				c-6.56,1.1-13.12,2.25-19.69,3.29l-19.73,3.06l-19.77,2.78c-3.29,0.48-6.6,0.89-9.9,1.3l-9.91,1.24
				c-26.43,3.26-52.96,5.77-79.55,7.37c-13.28,0.99-26.6,1.35-39.91,1.94c-6.66,0.2-13.32,0.23-19.98,0.36l-9.99,0.15
				c-3.33,0.03-6.66-0.05-9.99-0.07l-19.98-0.28l-19.97-0.7l-9.98-0.36l-9.97-0.54l-19.94-1.11l-19.92-1.45l-9.96-0.74l-9.95-0.88
				c-6.63-0.61-13.27-1.12-19.89-1.8l-19.86-2.09c-26.46-2.95-52.87-6.29-79.21-10.14l-19.73-3.03c-6.57-1.07-13.15-2.08-19.7-3.2
				C215.16,386.9,202.06,384.56,189,382z"/>
		</g>
		<polygon class="st40" points="340,273 460.23,126.62 513,126 397.26,286.96 360,278 		"/>
		<path class="st41" d="M578.02,128.15c-2.41,0.05-121.53,227.23-121.53,227.23s13.56,8.61,45.79,9.36
			c32.22,0.76,39.22-3.24,39.22-3.24l117.2-225.69C658.7,135.81,593.54,127.8,578.02,128.15z"/>
		<g>
			<path d="M331.2,269.73l42.31-0.03l42.3,0.16l84.61,0.45l84.6,1.02l42.3,0.7c14.1,0.31,28.2,0.69,42.29,1.22
				c-14.1-0.36-28.2-0.58-42.3-0.73l-42.3-0.52l-84.6-0.69l-84.6-0.78l-42.3-0.34L331.2,269.73z"/>
		</g>
		<ellipse class="st42" cx="145.08" cy="401.15" rx="15" ry="13.85"/>
		<ellipse class="st42" cx="136.42" cy="391.92" rx="7.5" ry="6.92"/>
		<ellipse class="st42" cx="873.92" cy="401.15" rx="15" ry="13.85"/>
		<ellipse class="st42" cx="882.58" cy="391.92" rx="7.5" ry="6.92"/>
	</g>
</g>
</svg>
